IKResults
version=1
nRows=7
nColumns=40
inDegrees=yes

Units are S.I. units (second, meters, Newtons, ...)
Angles are in degrees.

endheader
time	pelvis_tilt	pelvis_list	pelvis_rotation	pelvis_tx	pelvis_ty	pelvis_tz	hip_flexion_r	hip_adduction_r	hip_rotation_r	knee_angle_r	knee_angle_r_beta	ankle_angle_r	subtalar_angle_r	mtp_angle_r	hip_flexion_l	hip_adduction_l	hip_rotation_l	knee_angle_l	knee_angle_l_beta	ankle_angle_l	subtalar_angle_l	mtp_angle_l	lumbar_extension	lumbar_bending	lumbar_rotation	arm_flex_r	arm_add_r	arm_rot_r	elbow_flex_r	pro_sup_r	wrist_flex_r	wrist_dev_r	arm_flex_l	arm_add_l	arm_rot_l	elbow_flex_l	pro_sup_l	wrist_flex_l	wrist_dev_l
      0.81000000	     13.55409685	     -5.41703599	      4.12608401	     -0.04655169	      0.91384634	     -1.01924763	     10.32963999	      3.42042707	    -24.00828984	    -18.76353476	     -0.32748546	     -0.49090274	      1.30214332	     -8.22162915	    -28.90738644	      5.66725165	      6.54735860	    -19.62567039	     -0.34253257	     15.82734973	      4.36344805	     -6.60743157	    -20.55786249	      7.05991446	     -7.20796429	    -12.66553803	    -10.46954377	     -1.19165989	     18.81514631	     89.95437384	      0.00000000	      0.00000000	     11.18054414	     10.91200552	     13.57320188	     53.82769784	     89.95437384	      0.00000000	      0.00000000
      0.82000000	     13.41126236	     -5.99612382	      4.10045684	     -0.03458458	      0.91370621	     -1.01765143	     10.41461108	      4.36140659	    -21.95878890	    -19.37814069	     -0.33821236	     -1.67668647	     -2.11346655	     -9.08643512	    -28.94131086	      6.32862747	      5.83597975	    -20.73562186	     -0.36190487	     15.00331221	      5.26699238	     -6.75600764	    -20.28718636	      7.66220905	     -6.94956291	    -12.35495363	    -10.42873841	     -1.12681133	     18.49827098	     89.95437384	      0.00000000	      0.00000000	     10.95654262	     10.60665154	     13.73124101	     53.37525566	     89.95437384	      0.00000000	      0.00000000
      0.83000000	     13.38526952	     -6.38625144	      4.07927001	     -0.02225030	      0.91415736	     -1.01652842	     10.46847640	      4.72606981	    -21.05629439	    -20.75354116	     -0.36221762	     -1.82741855	     -2.11994324	     -8.90519186	    -29.00858644	      6.77672891	      5.05850272	    -22.00892125	     -0.38412814	     13.92304638	      5.31875256	     -6.54757155	    -20.14446554	      8.11974805	     -6.73717467	    -12.19143564	    -10.48207376	     -1.00486498	     18.52631560	     89.95437384	      0.00000000	      0.00000000	     10.61789195	     10.31587838	     13.78598094	     52.86681853	     89.95437384	      0.00000000	      0.00000000
      0.84000000	     13.51283619	     -7.14420715	      4.31941489	     -0.00960624	      0.91558553	     -1.01543307	      9.91169402	      5.83347081	    -19.87238138	    -21.29763107	     -0.37171379	     -2.00467104	     -4.35915137	     -8.57225853	    -29.00743449	      7.61502763	      4.06001962	    -23.58548641	     -0.41164439	     12.51475180	      7.55623233	     -6.20457271	    -20.04073256	      9.00714791	     -6.68003263	    -11.73083157	    -10.57167688	     -0.21434283	     17.97277317	     89.95437384	      0.00000000	      0.00000000	     10.33237538	      9.80949647	     14.23918510	     51.89372802	     89.95437384	      0.00000000	      0.00000000
      0.85000000	     13.69335532	     -7.58383937	      4.24254736	      0.00309031	      0.91744573	     -1.01402428	      9.29912330	      6.48102831	    -19.03622858	    -22.09589985	     -0.38564620	     -1.35188937	     -4.49100854	     -8.40278386	    -28.97772072	      8.06838644	      3.57319120	    -25.30323163	     -0.44162470	     10.45066509	      8.23217461	     -5.89861148	    -20.06111748	      9.46449526	     -6.34528953	    -11.36375802	    -10.57668263	      0.05108574	     17.68956260	     89.95437384	      0.00000000	      0.00000000	     10.04166799	      9.41171291	     14.41929829	     50.76122998	     89.95437384	      0.00000000	      0.00000000
      0.86000000	     14.03714910	     -8.08643668	      4.25781200	      0.01587601	      0.92009711	     -1.01272404	      8.10818601	      7.44819004	    -17.73040923	    -21.96218596	     -0.38331246	     -1.30765460	     -5.46031098	     -7.77526577	    -28.97114018	      8.52480041	      2.88331456	    -27.15284248	     -0.47390650	      8.01502523	      9.82479974	     -5.47693150	    -20.25885799	     10.02259256	     -6.11493696	    -10.98355378	    -10.66749128	      0.59778453	     17.57424157	     89.95437384	      0.00000000	      0.00000000	      9.63079160	      9.02330340	     14.63032660	     49.62772834	     89.95437384	      0.00000000	      0.00000000
      0.87000000	     14.36767892	     -8.21714186	      4.17109025	      0.02870813	      0.92289514	     -1.01120838	      6.93698433	      7.87142926	    -17.12653580	    -22.07539440	     -0.38528832	     -0.74231720	     -5.57734044	     -7.53736674	    -28.75901958	      8.67207068	      2.54374655	    -29.24608209	     -0.51044043	      5.09819293	     10.55640654	     -5.11784501	    -20.41969247	     10.10996036	     -5.79299701	    -10.58505863	    -10.60287711	      0.90959843	     17.35701233	     89.95437384	      0.00000000	      0.00000000	      9.31423480	      8.71600622	     14.62430116	     48.16717465	     89.95437384	      0.00000000	      0.00000000
